<svg xmlns="http://www.w3.org/2000/svg" width="31.551" height="35.76" viewBox="0 0 31.551 35.76">
  <g id="Grupo_1100011" data-name="Grupo 1100011" transform="translate(-953.446 -754.584)">
    <g id="Grupo_55471" data-name="Grupo 55471" transform="translate(966.439 754.87)">
      <g id="Grupo_55470" data-name="Grupo 55470" transform="translate(0 0)">
        <path id="Trazado_103836" data-name="Trazado 103836" d="M989.177,769.547,975.23,755.6a2.1,2.1,0,1,0-2.964,2.964l13.948,13.949a2.1,2.1,0,1,0,2.963-2.963Z" transform="translate(-971.653 -754.986)" fill="#ff725d"/>
      </g>
    </g>
    <g id="Grupo_55473" data-name="Grupo 55473" transform="translate(960.944 760.374)">
      <g id="Grupo_55472" data-name="Grupo 55472">
        <path id="Trazado_103837" data-name="Trazado 103837" d="M969.026,762.7l-.1.527a22.53,22.53,0,0,1-4.968,10.061l7.589,7.588a22.441,22.441,0,0,1,10.012-5.016l.526-.105Z" transform="translate(-963.953 -762.698)" fill="#ff725d"/>
      </g>
    </g>
    <g id="Grupo_55475" data-name="Grupo 55475" transform="translate(953.446 772.533)">
      <g id="Grupo_55474" data-name="Grupo 55474" transform="translate(0 0)">
        <path id="Trazado_103838" data-name="Trazado 103838" d="M959.553,779.736l-5.187,5.185a3.143,3.143,0,0,0,0,4.445l2.963,2.963a3.143,3.143,0,0,0,4.446,0l5.185-5.185Zm.74,8.149a1.048,1.048,0,0,1-1.481-1.482l1.481-1.481a1.048,1.048,0,0,1,1.481,1.481Z" transform="translate(-953.446 -779.736)" fill="#ff725d"/>
      </g>
    </g>
    <g id="Grupo_55477" data-name="Grupo 55477" transform="translate(964.738 778.755)">
      <g id="Grupo_55476" data-name="Grupo 55476">
        <path id="Trazado_103839" data-name="Trazado 103839" d="M975.866,795.384l1.425-1.425a3.139,3.139,0,0,0,0-4.444l-1.058-1.06a19.634,19.634,0,0,0-1.687,1.276L975.81,791a1.045,1.045,0,0,1,0,1.48l-1.449,1.449-2.129-2.063-2.963,2.963,4.752,4.606a2.1,2.1,0,0,0,2.962-2.965Z" transform="translate(-969.27 -788.455)" fill="#ff725d"/>
      </g>
    </g>
    <g id="Grupo_55479" data-name="Grupo 55479" transform="translate(974.52 754.584)">
      <g id="Grupo_55478" data-name="Grupo 55478" transform="translate(0)">
        <path id="Trazado_103840" data-name="Trazado 103840" d="M984.024,754.584a1.047,1.047,0,0,0-1.048,1.048v2.095a1.048,1.048,0,1,0,2.1,0v-2.095A1.048,1.048,0,0,0,984.024,754.584Z" transform="translate(-982.977 -754.584)" fill="#ff725d"/>
      </g>
    </g>
    <g id="Grupo_55481" data-name="Grupo 55481" transform="translate(980.806 762.965)">
      <g id="Grupo_55480" data-name="Grupo 55480" transform="translate(0 0)">
        <path id="Trazado_103841" data-name="Trazado 103841" d="M994.928,766.329h-2.1a1.048,1.048,0,0,0,0,2.1h2.1a1.048,1.048,0,0,0,0-2.1Z" transform="translate(-991.785 -766.329)" fill="#ff725d"/>
      </g>
    </g>
    <g id="Grupo_55483" data-name="Grupo 55483" transform="translate(978.71 756.679)">
      <g id="Grupo_55482" data-name="Grupo 55482">
        <path id="Trazado_103842" data-name="Trazado 103842" d="M992.732,757.827a1.048,1.048,0,0,0-1.481,0l-2.1,2.1a1.047,1.047,0,0,0,1.481,1.481l2.095-2.1A1.047,1.047,0,0,0,992.732,757.827Z" transform="translate(-988.849 -757.52)" fill="#ff725d"/>
      </g>
    </g>
  </g>
</svg>
