<svg xmlns="http://www.w3.org/2000/svg" width="1240" height="697" viewBox="0 0 1240 697">
  <g id="Grupo_1099529" data-name="Grupo 1099529" transform="translate(-180.333 -442)">
    <rect id="Rectángulo_388651" data-name="Rectángulo 388651" width="1240" height="697" rx="20" transform="translate(180.333 442)" fill="#f6f6f6"/>
    <g id="Rectángulo_401293" data-name="Rectángulo 401293" transform="translate(693 519)" fill="#ff725d" stroke="#fd725d" stroke-width="3">
      <rect width="254" height="63" stroke="none"/>
      <rect x="1.5" y="1.5" width="251" height="60" fill="none"/>
    </g>
    <g id="Rectángulo_401294" data-name="Rectángulo 401294" transform="translate(265 637)" fill="none" stroke="#fd725d" stroke-width="3">
      <rect width="188" height="63" stroke="none"/>
      <rect x="1.5" y="1.5" width="185" height="60" fill="none"/>
    </g>
    <g id="Rectángulo_401295" data-name="Rectángulo 401295" transform="translate(519 637)" fill="none" stroke="#fd725d" stroke-width="3">
      <rect width="249" height="63" stroke="none"/>
      <rect x="1.5" y="1.5" width="246" height="60" fill="none"/>
    </g>
    <g id="Rectángulo_401305" data-name="Rectángulo 401305" transform="translate(842 637)" fill="none" stroke="#fd725d" stroke-width="3">
      <rect width="249" height="63" stroke="none"/>
      <rect x="1.5" y="1.5" width="246" height="60" fill="none"/>
    </g>
    <g id="Rectángulo_401297" data-name="Rectángulo 401297" transform="translate(317 726)" fill="none" stroke="#0f66bf" stroke-width="3">
      <rect width="151" height="85" stroke="none"/>
      <rect x="1.5" y="1.5" width="148" height="82" fill="none"/>
    </g>
    <g id="Rectángulo_401298" data-name="Rectángulo 401298" transform="translate(578 750)" fill="none" stroke="#0f66bf" stroke-width="3">
      <rect width="217" height="61" stroke="none"/>
      <rect x="1.5" y="1.5" width="214" height="58" fill="none"/>
    </g>
    <g id="Rectángulo_401303" data-name="Rectángulo 401303" transform="translate(1174 750)" fill="none" stroke="#0f66bf" stroke-width="3">
      <rect width="173" height="61" stroke="none"/>
      <rect x="1.5" y="1.5" width="170" height="58" fill="none"/>
    </g>
    <g id="Rectángulo_401304" data-name="Rectángulo 401304" transform="translate(1174 829)" fill="none" stroke="#0f66bf" stroke-width="3">
      <rect width="173" height="61" stroke="none"/>
      <rect x="1.5" y="1.5" width="170" height="58" fill="none"/>
    </g>
    <g id="Rectángulo_401302" data-name="Rectángulo 401302" transform="translate(910 750)" fill="none" stroke="#0f66bf" stroke-width="3">
      <rect width="154" height="61" stroke="none"/>
      <rect x="1.5" y="1.5" width="151" height="58" fill="none"/>
    </g>
    <g id="Rectángulo_401299" data-name="Rectángulo 401299" transform="translate(578 825)" fill="none" stroke="#0f66bf" stroke-width="3">
      <rect width="217" height="61" stroke="none"/>
      <rect x="1.5" y="1.5" width="214" height="58" fill="none"/>
    </g>
    <g id="Rectángulo_401300" data-name="Rectángulo 401300" transform="translate(578 905)" fill="none" stroke="#0f66bf" stroke-width="3">
      <rect width="217" height="61" stroke="none"/>
      <rect x="1.5" y="1.5" width="214" height="58" fill="none"/>
    </g>
    <g id="Rectángulo_401301" data-name="Rectángulo 401301" transform="translate(578 985)" fill="none" stroke="#0f66bf" stroke-width="3">
      <rect width="217" height="61" stroke="none"/>
      <rect x="1.5" y="1.5" width="214" height="58" fill="none"/>
    </g>
    <g id="Rectángulo_401296" data-name="Rectángulo 401296" transform="translate(1118 637)" fill="none" stroke="#fd725d" stroke-width="3">
      <rect width="249" height="63" stroke="none"/>
      <rect x="1.5" y="1.5" width="246" height="60" fill="none"/>
    </g>
    <text id="El_cajero" data-name="El cajero" transform="translate(361 674)" fill="#12263f" font-size="14" font-family="Roboto-Black, Roboto" font-weight="800"><tspan x="-27.098" y="0">El cajero</tspan></text>
    <text id="Generalidades_funciones_ética_y_protocolos." data-name="Generalidades, 
funciones, ética 
y protocolos." transform="translate(342 750)" fill="#12263f" font-size="14" font-family="Roboto-Regular, Roboto"><tspan x="0" y="0">Generalidades, </tspan><tspan x="0" y="20">funciones, ética </tspan><tspan x="0" y="40">y protocolos.</tspan></text>
    <text id="Administración_del_dinero_y_documentos" data-name="Administración del dinero 
y documentos" transform="translate(603 773)" fill="#12263f" font-size="14" font-family="Roboto-Regular, Roboto"><tspan x="0" y="0">Administración del dinero </tspan><tspan x="0" y="20">y documentos</tspan></text>
    <text id="Concepto_y_tipos" data-name="Concepto y tipos" transform="translate(927 782)" fill="#12263f" font-size="14" font-family="Roboto-Regular, Roboto"><tspan x="0" y="0">Concepto y tipos</tspan></text>
    <text id="Seguridad_y_salud_en_el_trabajo" data-name="Seguridad y salud 
en el trabajo" transform="translate(1197 775)" fill="#12263f" font-size="14" font-family="Roboto-Regular, Roboto"><tspan x="0" y="0">Seguridad y salud </tspan><tspan x="0" y="20">en el trabajo</tspan></text>
    <text id="Leyes_de_protección_de_datos" data-name="Leyes de protección 
de datos" transform="translate(1197 854)" fill="#12263f" font-size="14" font-family="Roboto-Regular, Roboto"><tspan x="0" y="0">Leyes de protección </tspan><tspan x="0" y="20">de datos</tspan></text>
    <text id="Equipos_tecnológicos" data-name="Equipos tecnológicos" transform="translate(603 864)" fill="#12263f" font-size="14" font-family="Roboto-Regular, Roboto"><tspan x="0" y="0">Equipos tecnológicos</tspan></text>
    <text id="Elementos_en_el_puesto_de_trabajo" data-name="Elementos en el puesto 
de trabajo" transform="translate(603 929)" fill="#12263f" font-size="14" font-family="Roboto-Regular, Roboto"><tspan x="0" y="0">Elementos en el puesto </tspan><tspan x="0" y="20">de trabajo</tspan></text>
    <text id="Manejo_de_valores" data-name="Manejo de valores" transform="translate(603 1020)" fill="#12263f" font-size="14" font-family="Roboto-Regular, Roboto"><tspan x="0" y="0">Manejo de valores</tspan></text>
    <text id="Recursos_del_puesto_de_pago" data-name="Recursos del puesto de pago" transform="translate(639 674)" fill="#12263f" font-size="14" font-family="Roboto-Black, Roboto" font-weight="800"><tspan x="-91.239" y="0">Recursos del puesto de pago</tspan></text>
    <text id="Medios_de_pago" data-name="Medios de pago" transform="translate(962 674)" fill="#12263f" font-size="14" font-family="Roboto-Black, Roboto" font-weight="800"><tspan x="-50.172" y="0">Medios de pago</tspan></text>
    <text id="Normativa_del_recaudo_de_caja" data-name="Normativa del recaudo de caja" transform="translate(1238 674)" fill="#12263f" font-size="14" font-family="Roboto-Black, Roboto" font-weight="800"><tspan x="-95.768" y="0">Normativa del recaudo de caja</tspan></text>
    <line id="Línea_622" data-name="Línea 622" y1="30" transform="translate(811.5 582.5)" fill="none" stroke="#707070" stroke-width="1"/>
    <path id="Trazado_874091" data-name="Trazado 874091" d="M-14212-9429v-25.111h883V-9429" transform="translate(14571 10066)" fill="none" stroke="#707070" stroke-width="1"/>
    <line id="Línea_623" data-name="Línea 623" y2="25" transform="translate(663.5 612.5)" fill="none" stroke="#707070" stroke-width="1"/>
    <line id="Línea_624" data-name="Línea 624" y2="25" transform="translate(962.5 612.5)" fill="none" stroke="#707070" stroke-width="1"/>
    <path id="Trazado_874092" data-name="Trazado 874092" d="M-14287.608-9366.087v78.912H-14254" transform="translate(14571 10066)" fill="none" stroke="#707070" stroke-width="1"/>
    <path id="Trazado_874093" data-name="Trazado 874093" d="M-14027.249-9366.087v310.172h34.46" transform="translate(14571 10066)" fill="none" stroke="#707070" stroke-width="1"/>
    <line id="Línea_625" data-name="Línea 625" x1="35" transform="translate(543.5 934.5)" fill="none" stroke="#707070" stroke-width="1"/>
    <line id="Línea_626" data-name="Línea 626" x1="35" transform="translate(543.5 855.5)" fill="none" stroke="#707070" stroke-width="1"/>
    <line id="Línea_627" data-name="Línea 627" x1="35" transform="translate(543.5 778.5)" fill="none" stroke="#707070" stroke-width="1"/>
    <path id="Trazado_874094" data-name="Trazado 874094" d="M-13697.968-9366.087v79.678h37.522" transform="translate(14571 10066)" fill="none" stroke="#707070" stroke-width="1"/>
    <path id="Trazado_874095" data-name="Trazado 874095" d="M-13434-9366.087V-9208.3h37.737" transform="translate(14571 10066)" fill="none" stroke="#707070" stroke-width="1"/>
    <line id="Línea_628" data-name="Línea 628" x2="38" transform="translate(1137 785)" fill="none" stroke="#707070" stroke-width="1"/>
    <text id="Recursos_del_cajero" data-name="Recursos del cajero" transform="translate(821 556)" fill="#12263f" font-size="20" font-family="Roboto-Black, Roboto" font-weight="800"><tspan x="-89.126" y="0">Recursos del cajero</tspan></text>
  </g>
</svg>
