<svg xmlns="http://www.w3.org/2000/svg" width="9.99" height="11.323" viewBox="0 0 9.99 11.323">
  <g id="Componente_1_10" data-name="Componente 1 – 10" transform="translate(0)">
    <g id="Grupo_55471" data-name="Grupo 55471" transform="translate(4.114 0.091)">
      <g id="Grupo_55470" data-name="Grupo 55470" transform="translate(0 0)">
        <path id="Trazado_103836" data-name="Trazado 103836" d="M977.2,759.6l-4.416-4.417a.664.664,0,1,0-.939.938l4.416,4.417a.663.663,0,0,0,.938-.938Z" transform="translate(-971.653 -754.985)" fill="#ff725d"/>
      </g>
    </g>
    <g id="Grupo_55473" data-name="Grupo 55473" transform="translate(2.374 1.833)">
      <g id="Grupo_55472" data-name="Grupo 55472">
        <path id="Trazado_103837" data-name="Trazado 103837" d="M965.559,762.7l-.033.167a7.134,7.134,0,0,1-1.573,3.186l2.4,2.4a7.1,7.1,0,0,1,3.17-1.588l.167-.033Z" transform="translate(-963.953 -762.698)" fill="#ff725d"/>
      </g>
    </g>
    <g id="Grupo_55475" data-name="Grupo 55475" transform="translate(0 5.684)">
      <g id="Grupo_55474" data-name="Grupo 55474" transform="translate(0 0)">
        <path id="Trazado_103838" data-name="Trazado 103838" d="M955.38,779.736l-1.642,1.642a1,1,0,0,0,0,1.407l.938.938a1,1,0,0,0,1.408,0l1.642-1.642Zm.234,2.58a.332.332,0,0,1-.469-.469l.469-.469a.332.332,0,0,1,.469.469Z" transform="translate(-953.446 -779.736)" fill="#ff725d"/>
      </g>
    </g>
    <g id="Grupo_55477" data-name="Grupo 55477" transform="translate(3.576 7.653)">
      <g id="Grupo_55476" data-name="Grupo 55476">
        <path id="Trazado_103839" data-name="Trazado 103839" d="M971.359,790.649l.451-.451a.994.994,0,0,0,0-1.407l-.335-.336a6.229,6.229,0,0,0-.534.4l.4.4a.331.331,0,0,1,0,.469l-.459.459-.674-.653-.938.938,1.5,1.459a.664.664,0,0,0,.938-.939Z" transform="translate(-969.27 -788.455)" fill="#ff725d"/>
      </g>
    </g>
    <g id="Grupo_55479" data-name="Grupo 55479" transform="translate(6.673)">
      <g id="Grupo_55478" data-name="Grupo 55478" transform="translate(0)">
        <path id="Trazado_103840" data-name="Trazado 103840" d="M983.309,754.584a.332.332,0,0,0-.332.332v.663a.332.332,0,1,0,.664,0v-.663A.332.332,0,0,0,983.309,754.584Z" transform="translate(-982.977 -754.584)" fill="#ff725d"/>
      </g>
    </g>
    <g id="Grupo_55481" data-name="Grupo 55481" transform="translate(8.663 2.653)">
      <g id="Grupo_55480" data-name="Grupo 55480" transform="translate(0 0)">
        <path id="Trazado_103841" data-name="Trazado 103841" d="M992.78,766.329h-.663a.332.332,0,0,0,0,.663h.663a.332.332,0,0,0,0-.663Z" transform="translate(-991.785 -766.329)" fill="#ff725d"/>
      </g>
    </g>
    <g id="Grupo_55483" data-name="Grupo 55483" transform="translate(8 0.663)">
      <g id="Grupo_55482" data-name="Grupo 55482">
        <path id="Trazado_103842" data-name="Trazado 103842" d="M990.078,757.617a.332.332,0,0,0-.469,0l-.663.664a.332.332,0,0,0,.469.469l.663-.664A.332.332,0,0,0,990.078,757.617Z" transform="translate(-988.849 -757.52)" fill="#ff725d"/>
      </g>
    </g>
  </g>
</svg>
