<svg xmlns="http://www.w3.org/2000/svg" xmlns:xlink="http://www.w3.org/1999/xlink" width="91.322" height="91.323" viewBox="0 0 91.322 91.323">
  <defs>
    <filter id="Trazado_873236" x="0" y="0" width="91.322" height="91.323" filterUnits="userSpaceOnUse">
      <feOffset dy="3" input="SourceAlpha"/>
      <feGaussianBlur stdDeviation="3" result="blur"/>
      <feFlood flood-opacity="0.161"/>
      <feComposite operator="in" in2="blur"/>
      <feComposite in="SourceGraphic"/>
    </filter>
  </defs>
  <g id="Grupo_1099530" data-name="Grupo 1099530" transform="translate(13510.226 11880.661)">
    <g transform="matrix(1, 0, 0, 1, -13510.23, -11880.66)" filter="url(#Trazado_873236)">
      <path id="Trazado_873236-2" data-name="Trazado 873236" d="M386.411,89.156A36.661,36.661,0,1,1,349.75,52.493,36.661,36.661,0,0,1,386.411,89.156Z" transform="translate(-304.09 -46.49)" fill="#fff"/>
    </g>
    <g id="Grupo_1099134" data-name="Grupo 1099134" transform="translate(-13479.334 -11865.951)">
      <path id="Trazado_873179" data-name="Trazado 873179" d="M171.28,134.013l-8.474-5.907H150.6l-8.646,5.943v35.133h29.33Zm-14.609,1.163a2.183,2.183,0,1,1,2.181-2.182A2.184,2.184,0,0,1,156.671,135.177Z" transform="translate(-141.95 -114.792)" fill="#df2d55"/>
      <g id="Grupo_1099031" data-name="Grupo 1099031" transform="translate(5.013 28.838)">
        <g id="Grupo_1099030" data-name="Grupo 1099030">
          <path id="Trazado_873180" data-name="Trazado 873180" d="M145.772,145.234a8.306,8.306,0,0,1,.281-2.284,4.686,4.686,0,0,1,.787-1.615,3.2,3.2,0,0,1,1.209-.96,3.972,3.972,0,0,1,3.1,0,3.19,3.19,0,0,1,1.209.96,4.663,4.663,0,0,1,.787,1.615,9.414,9.414,0,0,1,0,4.553,4.658,4.658,0,0,1-.787,1.616,3.242,3.242,0,0,1-1.209.965,3.9,3.9,0,0,1-3.1,0,3.252,3.252,0,0,1-1.209-.965,4.681,4.681,0,0,1-.787-1.616A8.237,8.237,0,0,1,145.772,145.234Zm5.055,0a11.722,11.722,0,0,0-.06-1.228,4.248,4.248,0,0,0-.2-.967,1.69,1.69,0,0,0-.375-.637.866.866,0,0,0-1.18,0,1.673,1.673,0,0,0-.375.637,4.317,4.317,0,0,0-.2.967,12.733,12.733,0,0,0,0,2.449,4.307,4.307,0,0,0,.2.971,1.669,1.669,0,0,0,.375.639.866.866,0,0,0,1.18,0,1.685,1.685,0,0,0,.375-.639,4.24,4.24,0,0,0,.2-.971A11.8,11.8,0,0,0,150.827,145.234Zm11.084-4.1-11.633,15.588-1.55-1.191,11.634-15.59Zm-4.672,10.178a8.3,8.3,0,0,1,.279-2.282,4.681,4.681,0,0,1,.787-1.616,3.176,3.176,0,0,1,1.211-.959,3.953,3.953,0,0,1,3.1,0,3.182,3.182,0,0,1,1.209.959,4.681,4.681,0,0,1,.787,1.616,9.37,9.37,0,0,1,0,4.553,4.674,4.674,0,0,1-.787,1.615,3.256,3.256,0,0,1-1.209.967,3.894,3.894,0,0,1-3.1,0,3.25,3.25,0,0,1-1.211-.967,4.674,4.674,0,0,1-.787-1.615A8.256,8.256,0,0,1,157.239,151.312Zm5.054,0a11.4,11.4,0,0,0-.06-1.228,4.235,4.235,0,0,0-.2-.965,1.647,1.647,0,0,0-.375-.637.861.861,0,0,0-1.179,0,1.681,1.681,0,0,0-.376.637,4.307,4.307,0,0,0-.2.965,12.736,12.736,0,0,0,0,2.449,4.323,4.323,0,0,0,.2.972,1.68,1.68,0,0,0,.376.637.865.865,0,0,0,1.179,0,1.647,1.647,0,0,0,.375-.637,4.251,4.251,0,0,0,.2-.972A11.428,11.428,0,0,0,162.293,151.312Z" transform="translate(-145.772 -139.942)" fill="#fff"/>
        </g>
      </g>
      <g id="Grupo_1099032" data-name="Grupo 1099032" transform="translate(13.74)">
        <path id="Trazado_873181" data-name="Trazado 873181" d="M153.349,138.345a2.072,2.072,0,0,1-.923-.236V118.877a.923.923,0,0,1,1.845,0V138.16A1.617,1.617,0,0,1,153.349,138.345Z" transform="translate(-152.426 -117.955)" fill="#ffb92f"/>
      </g>
    </g>
  </g>
</svg>
