<svg xmlns="http://www.w3.org/2000/svg" xmlns:xlink="http://www.w3.org/1999/xlink" width="96.502" height="96.5" viewBox="0 0 96.502 96.5">
  <defs>
    <filter id="Trazado_873237" x="0" y="0" width="96.502" height="96.5" filterUnits="userSpaceOnUse">
      <feOffset dy="3" input="SourceAlpha"/>
      <feGaussianBlur stdDeviation="3" result="blur"/>
      <feFlood flood-opacity="0.161"/>
      <feComposite operator="in" in2="blur"/>
      <feComposite in="SourceGraphic"/>
    </filter>
  </defs>
  <g id="Grupo_1099531" data-name="Grupo 1099531" transform="translate(13404 11884.006)">
    <g transform="matrix(1, 0, 0, 1, -13404, -11884.01)" filter="url(#Trazado_873237)">
      <path id="Trazado_873237-2" data-name="Trazado 873237" d="M313.261,134.345A39.251,39.251,0,1,1,274.011,95.1,39.251,39.251,0,0,1,313.261,134.345Z" transform="translate(-225.76 -89.1)" fill="#fff"/>
    </g>
    <g id="checklist_3_" data-name="checklist (3)" transform="translate(-13381 -11864.91)">
      <path id="Trazado_873224" data-name="Trazado 873224" d="M38.172,45.551V8.379A3.389,3.389,0,0,0,34.793,5H4.379A3.389,3.389,0,0,0,1,8.379V45.551A3.389,3.389,0,0,0,4.379,48.93H34.793A3.379,3.379,0,0,0,38.172,45.551Z" transform="translate(0 -0.621)" fill="#ad6d40"/>
      <rect id="Rect치ngulo_400994" data-name="Rect치ngulo 400994" width="31" height="37" rx="1" transform="translate(4 7.999)" fill="#f8f8ff"/>
      <path id="Trazado_873225" data-name="Trazado 873225" d="M28.517,4.379V6.914a1.7,1.7,0,0,1-1.69,1.69H16.69A1.7,1.7,0,0,1,15,6.914V4.379a.847.847,0,0,1,.845-.845h2.644a3.376,3.376,0,0,1,6.539,0h2.644A.847.847,0,0,1,28.517,4.379Z" transform="translate(-2.173)" fill="#cbcbf4"/>
      <path id="Trazado_873226" data-name="Trazado 873226" d="M53.724,29.96V52.8a1.7,1.7,0,0,1-1.69,1.69H26.69A1.7,1.7,0,0,1,25,52.8V29.96Z" transform="translate(-3.724 -4.494)" fill="#ea9453"/>
      <path id="Trazado_873227" data-name="Trazado 873227" d="M53.466,28.269l-5.013-5.013A.872.872,0,0,0,47.836,23H30.889a.87.87,0,0,0-.617.256l-5.013,5.013a.872.872,0,0,0,.617,1.489H52.85a.872.872,0,0,0,.617-1.489Z" transform="translate(-3.725 -3.414)" fill="#fcb36b"/>
      <path id="Trazado_873228" data-name="Trazado 873228" d="M45.448,30.845v5.914a.845.845,0,0,1-.845.845H37.845A.845.845,0,0,1,37,36.759V30.845L37.845,30H44.6Z" transform="translate(-5.587 -4.5)" fill="#723535"/>
      <rect id="Rect치ngulo_400995" data-name="Rect치ngulo 400995" width="6" height="5" rx="1" transform="translate(25 41.999)" fill="#fff"/>
      <path id="Trazado_873229" data-name="Trazado 873229" d="M45.448,29.759,42.914,23H39.534L37,29.759Z" transform="translate(-5.587 -3.414)" fill="#914747"/>
      <path id="Trazado_873230" data-name="Trazado 873230" d="M48.287,49.247a.844.844,0,0,0-1.195,0l-.845.845a.845.845,0,0,0,.6,1.442v2.534a.845.845,0,0,0,1.69,0V51.534a.845.845,0,0,0,.6-1.442Z" transform="translate(-6.983 -7.449)" fill="#20295e"/>
      <path id="Trazado_873231" data-name="Trazado 873231" d="M55.132,50.092l-.845-.845a.844.844,0,0,0-1.195,0l-.845.845a.845.845,0,0,0,.6,1.442v2.534a.845.845,0,0,0,1.69,0V51.534a.845.845,0,0,0,.6-1.442Z" transform="translate(-7.914 -7.449)" fill="#20295e"/>
      <g id="Grupo_1099133" data-name="Grupo 1099133" transform="translate(9.448 12.828)">
        <path id="Trazado_873232" data-name="Trazado 873232" d="M13.534,21.759a.842.842,0,0,1-.6-.248l-1.69-1.69a.845.845,0,1,1,1.195-1.195l.961.961,2.807-4.211a.845.845,0,0,1,1.406.938l-3.379,5.069a.844.844,0,0,1-.619.372c-.028,0-.056,0-.084,0Z" transform="translate(-11 -15)" fill="#43a867"/>
        <path id="Trazado_873233" data-name="Trazado 873233" d="M13.534,33.759a.842.842,0,0,1-.6-.248l-1.69-1.69a.845.845,0,0,1,1.195-1.195l.961.961,2.807-4.211a.845.845,0,1,1,1.406.938l-3.379,5.069a.844.844,0,0,1-.619.372c-.028,0-.056,0-.084,0Z" transform="translate(-11 -16.863)" fill="#43a867"/>
        <path id="Trazado_873234" data-name="Trazado 873234" d="M13.534,45.759a.842.842,0,0,1-.6-.248l-1.69-1.69a.845.845,0,0,1,1.195-1.195l.961.961,2.807-4.211a.845.845,0,0,1,1.406.938l-3.379,5.069a.844.844,0,0,1-.619.372c-.028,0-.056,0-.084,0Z" transform="translate(-11 -18.725)" fill="#43a867"/>
      </g>
    </g>
  </g>
</svg>
