<svg xmlns="http://www.w3.org/2000/svg" width="29.485" height="31.658" viewBox="0 0 29.485 31.658">
  <g id="stock-market" transform="translate(-1)">
    <path id="Trazado_874137" data-name="Trazado 874137" d="M44.334,49.578c-.518-.139-1.131.4-1.34,1.177s.053,1.551.571,1.69,1.132-.4,1.34-1.177S44.852,49.718,44.334,49.578Z" transform="translate(-21.185 -25.043)" fill="#ff725d"/>
    <path id="Trazado_874138" data-name="Trazado 874138" d="M18,34.038v.971a1.979,1.979,0,1,0,3.957,0v-.971A4.353,4.353,0,0,1,18,34.038Z" transform="translate(-8.591 -17.201)" fill="#ff725d"/>
    <path id="Trazado_874139" data-name="Trazado 874139" d="M34,17v2.473h.247a1.237,1.237,0,0,0,0-2.473Z" transform="translate(-16.676 -8.591)" fill="#ff725d"/>
    <path id="Trazado_874140" data-name="Trazado 874140" d="M9.039,7.42a2.478,2.478,0,0,1,2.424-1.979h.989a.5.5,0,0,1,.495.495v.927a5.455,5.455,0,0,0,2.124-1.278h0a.495.495,0,0,1,.844.35v.927h0a5.455,5.455,0,0,0,2.124-1.278h0a.5.5,0,0,1,.349-.144h0A2.478,2.478,0,0,1,20.812,7.42h.3a2.2,2.2,0,0,1,.742.137V6.925A6.925,6.925,0,0,0,8,6.925v.631a2.2,2.2,0,0,1,.742-.137Z" transform="translate(-3.537)" fill="#ff725d"/>
    <path id="Trazado_874141" data-name="Trazado 874141" d="M8.237,19.473h.247V17H8.237a1.237,1.237,0,1,0,0,2.473Z" transform="translate(-3.032 -8.591)" fill="#ff725d"/>
    <path id="Trazado_874142" data-name="Trazado 874142" d="M21.893,17.953V14.484a1.484,1.484,0,0,0-1.3-1.473,5.341,5.341,0,0,1-3.151,1.473.5.5,0,0,1-.495-.495V13.55a4.547,4.547,0,0,1-2.473.934.5.5,0,0,1-.495-.495V13h-.495A1.484,1.484,0,0,0,12,14.484v3.469a4.452,4.452,0,0,0,2.092,3.775l1.026.643a3.45,3.45,0,0,0,3.657,0l1.026-.643A4.452,4.452,0,0,0,21.893,17.953Zm-7.173-1h-.495a.495.495,0,0,1,0-.989h.495a.495.495,0,1,1,0,.989Zm3.565,3.4a1.893,1.893,0,0,1-2.678,0,.495.495,0,1,1,.7-.7.925.925,0,0,0,1.279,0,.495.495,0,1,1,.7.7Zm.887-3.4a.495.495,0,0,1,0-.989h.495a.495.495,0,1,1,0,.989Z" transform="translate(-5.559 -6.569)" fill="#ff725d"/>
    <path id="Trazado_874143" data-name="Trazado 874143" d="M40.9,42H29.063a.989.989,0,0,0-.974.812L26.619,50.9H23.576a2.449,2.449,0,0,1,.21.989v.989H38.873a1.484,1.484,0,0,0,1.46-1.219l1.545-8.5A.989.989,0,0,0,40.9,42Zm-4.816,5.706a2.275,2.275,0,0,1-2.551,1.88,2.537,2.537,0,0,1,1.28-4.781A2.27,2.27,0,0,1,36.085,47.706Z" transform="translate(-11.409 -21.224)" fill="#ff725d"/>
    <path id="Trazado_874144" data-name="Trazado 874144" d="M3.473,47.061V43.6a.495.495,0,1,1,.989,0v2.968H9.9a2.45,2.45,0,0,1,1.469.495h3.012l1.323-7.279a1.979,1.979,0,0,1,1.947-1.624H19.9a5.421,5.421,0,0,0-2.565-1.243l-2.99-.561a2.964,2.964,0,0,1-5.918.006l-2.991.555A5.441,5.441,0,0,0,1,42.263v5.293a2.476,2.476,0,0,0,2.473,2.473H8.42V47.556H3.968A.5.5,0,0,1,3.473,47.061Z" transform="translate(0 -18.371)" fill="#ff725d"/>
    <path id="Trazado_874145" data-name="Trazado 874145" d="M18.495,59H18v2.473h1.979v-.989A1.484,1.484,0,0,0,18.495,59Z" transform="translate(-8.591 -29.815)" fill="#ff725d"/>
  </g>
</svg>
